<svg width="295" height="28" viewBox="0 0 295 28" xmlns="http://www.w3.org/2000/svg">
  <title>
    David Jones Logo 
  </title>
  <path d="M277.347 18.514h-1.023l.183 8.143h1.096c.622-2.045.694-2.373 1.682-1.57 1.534 1.205 3.398 2.045 6.286 2.045 5.74 0 9.43-3.615 9.43-8.363 0-3.433-1.572-5.697-6.944-7.56l-2.412-.84c-4.13-1.423-5.666-2.52-5.666-4.746 0-2.264 2.34-4.017 5.85-4.017 2.776 0 5.152 1.17 6.03 3.87l.912 2.812h1.024l.292-7.742h-1.096c-.84 1.972-.95 1.936-2.084 1.06C289.773.73 288.384 0 285.862 0c-4.75 0-8.55 2.848-8.55 7.522 0 3.69 1.973 5.77 6.906 7.486l2.413.84c4.058 1.425 5.52 2.41 5.52 4.966 0 2.594-2.668 4.71-6.58 4.71-3.4 0-6.468-1.898-7.273-4.272l-.95-2.738zm-9.758.366l-.95-.22c-1.902 5.734-3.108 6.354-7.384 6.354h-5.63c-.948 0-1.24-.474-1.24-1.242v-9.858h5.006c2.084 0 2.522.4 2.85 2.483l.257 1.716h1.17V7.96h-1.17l-.257 1.718c-.33 2.08-.767 2.483-2.85 2.483h-5.007V3.47c0-.768.292-1.242 1.24-1.242h5.557c3.545 0 4.496.62 6.396 5.623l.95-.217-1.134-7.048h-20.942v1.24l2.047.22c.95.11 1.243.475 1.243 1.242v20.668c0 .768-.292 1.132-1.242 1.24l-2.046.22v1.242h21.016l2.12-7.777zm-48.025 6.536l-2.048-.22c-.95-.11-1.242-.473-1.242-1.24V5.33l16.63 21.325h1.28l-.038-23.37c0-.767.293-1.132 1.243-1.242l2.047-.22V.586h-8.406v1.24l2.048.22c.95.11 1.242.475 1.242 1.242v15.227L218.944.584h-7.786v1.242l2.047.22c.95.11 1.243.474 1.243 1.24v20.67c0 .767-.292 1.13-1.243 1.24l-2.047.22v1.24h8.407v-1.24zm-29.13-23.59c5.666 0 8.042 4.93 8.042 11.795 0 6.867-2.376 11.796-8.04 11.796-5.63 0-8.006-4.93-8.006-11.795 0-6.864 2.377-11.794 8.006-11.794zm0-1.607c-6.76 0-13.12 5.733-13.12 13.4 0 7.67 6.36 13.402 13.12 13.402 6.798 0 13.158-5.733 13.158-13.4 0-7.67-6.36-13.403-13.157-13.403zm-31.76 26.11c-.767 0-1.644-.22-2.302-.622.584-.255 1.608-1.168 1.608-2.703 0-1.825-1.315-2.993-2.96-2.993-1.79 0-3.033 1.205-3.033 2.993 0 3.178 3.582 4.64 6.688 4.64 4.935 0 7.785-2.52 7.785-6.502V3.287c0-.767.293-1.132 1.243-1.242l2.047-.22V.586h-11.22v1.24l2.046.22c.95.11 1.243.475 1.243 1.242V21.51c0 3.504-1.17 4.82-3.145 4.82zm-39.654-1.316c-.95 0-1.24-.474-1.24-1.242V3.47c0-.768.29-1.242 1.24-1.242h3.802c5.592 0 8.516 4.418 8.516 11.393 0 6.61-2.924 11.394-8.516 11.394h-3.8zM109.85.584v1.242l2.047.22c.95.11 1.242.474 1.242 1.24v20.67c0 .767-.293 1.13-1.242 1.24l-2.047.22v1.24h12.974c6.725 0 13.523-4.27 13.523-13.035 0-8.763-6.798-13.035-13.523-13.035h-12.974zM94.9 3.288v20.668c0 .768-.293 1.132-1.243 1.24l-2.047.22v1.242h11.22v-1.24l-2.046-.22c-.95-.11-1.243-.474-1.243-1.242V3.287c0-.767.293-1.132 1.244-1.242l2.047-.22V.586H91.61v1.24l2.047.22c.95.11 1.243.475 1.243 1.242zM72.64 26.62l9.322-23.515c.4-.987.548-1.17 1.352-1.243l2.303-.218V.548h-8.333v1.096l2.193.218c.95.11 1.132.33.767 1.243L73.738 19.61 66.904 3.433c-.402-.986-.402-1.425.804-1.57l2.047-.22V.55H58.132v1.096l2.193.182c.767.074 1.133.402 1.754 1.863l9.72 22.93h.84zm-33.258-1.204l-1.9-.22c-.95-.11-1.133-.328-.768-1.24l1.718-4.346h9.722l1.718 4.016c.403.986.403 1.424-.804 1.57l-1.718.22.037 1.24h11.037v-1.24l-2.01-.183c-.767-.073-1.133-.402-1.754-1.862L44.974.586h-.84l-9.284 23.37c-.4.986-.548 1.17-1.352 1.24l-1.937.22v1.242h7.822v-1.24zm8.042-7.56h-8.297l4.02-10.15 4.277 10.15zm-38.25 7.158c-.95 0-1.243-.474-1.243-1.242V3.47c0-.768.293-1.242 1.243-1.242h3.802c5.59 0 8.515 4.418 8.515 11.393 0 6.61-2.924 11.394-8.515 11.394H9.173zM0 .584v1.242l2.047.22c.95.11 1.242.474 1.242 1.24v20.67c0 .767-.293 1.13-1.243 1.24L0 25.416v1.24h12.975c6.724 0 13.522-4.27 13.522-13.035C26.497 4.858 19.7.586 12.975.586H0z" fill="#231F20" fill-rule="evenodd"/>
</svg>
